<?xml version="1.0" encoding="UTF-8"?>
<svg id="Layer_1" data-name="Layer 1" xmlns="http://www.w3.org/2000/svg" viewBox="0 0 346.8 16.78">
  <defs>
    <style>
      .cls-1 {
        fill: #fff;
      }
    </style>
  </defs>
  <path class="cls-1" d="M221.19.23c1.66-.84,4.55,3.04,4.69,4.48.26,1.92.12,3.91-1.27,5.33-1.49,1.54-2.96,1.33-4.91,1.63-.19.19,3.6,3.32,3.21,3.66-.9-.13-2.42.24-3.21-.12-.96-.44-2.52-2.6-3.46-3.19-.49-.31-.68-.31-1.24-.36-2.58-.24-10.93-.36-13.27.07-1.91.35-1.2,2.13-1.32,3.61h-2.3v-3.78c0-.9,1.77-2.03,2.66-2.15,5.99-.85,12.96.19,19.04-.24,2.19-.15,4-.64,3.76-3.3-.1-1.09-1.48-3.35-2.62-3.35h-22.84V.23c7.68.18,15.39-.24,23.07,0Z"/>
  <path class="cls-1" d="M47.69,1.51c-.06.07-.15.18-.27.31-7.19,8.38-8.32,10.46-11.72,13.49-1.52,1.36-3.94,1.9-5.83,1.06-1.36-.61-4.06-4.51-5.17-4.39-.36.04-3.49,3.67-4.63,4.23-2.01.99-4.75.64-6.51-.75C9.35,10.56,3.57,6.35.03,1.03c-.09-.46.06-.31.34-.35.41-.06,1.44-.07,1.84,0,1.47.28,10.75,11.13,12.74,12.7,5.23,4.21,7.02-6.21,11.47-3.66,2.83,1.77,4.09,7.4,8.39,3.08,2.92-2.93,5.41-6.39,8.26-9.39,0,0,0,0,0,0,.37-.47,1.29-1.58,2.35-2.34.38-.27.81-.52,1.27-.46.34.04.66.23.66.23.17.09.29.2.38.27l-.04.38Z"/>
  <path class="cls-1" d="M82.43,15.34h-21.92c-1.32,0-1.32-2.52,0-2.52h16.64c.1-.4-.17-.46-.34-.69-1.08-1.4-6.91-7.29-8.26-8.24-1.05-.73-1.93-.81-3.1-.34-3.87,3.41-7.14,7.56-10.66,11.34l-3.11.22c-.24-.21,1.69-2.45,1.95-2.75,2.39-2.75,6.86-8.07,9.53-10.19,2.34-1.85,5.39-1.81,7.59.22,2.77,2.57,9.58,9.23,11.48,12.13.19.28.28.46.22.81Z"/>
  <path class="cls-1" d="M125.38,14.67c-.38-.38-.22-1.08.32-1.44,1.06-.58,2.43-.1,3.61-.15,5.65-.06,11.42.31,17.03-.38,4.57-1.17,5-7.31.87-9.47-.49-.27-.83-.37-1.33-.39-2.35-.02-12.14-.06-17.15-.08-.48,0-.91,0-1.36,0-1.34-.03-1.96.18-2.16-.92-.16-2.22,3.79-1.09,5.22-1.41,4.4-.19,10.39-.66,14.73-.25,6.9.3,10.57,9.68,4.26,13.67-1.21.83-2.65,1.31-4.11,1.47-5.91.49-12.11-.41-18.12-.26-.57.02-1.34.04-1.71-.29l-.09-.08Z"/>
  <path class="cls-1" d="M113.88.46h2.3s.23,14.65.23,14.65h-8.15c-3.59-2.62-6.38-6.16-9.63-9.16-.81-.75-2.18-2.22-3.12-2.61-1.41-.58-3.48.1-5.03-.13v11.89s-2.3.01-2.3.01l-.12-13.97c.37-.41.86-.42,1.37-.47,3.03-.27,6.37-.39,8.82,1.52,2.07,1.62,10.11,10.85,11.85,10.85h3.79V.46Z"/>
  <g>
    <path class="cls-1" d="M161.72,1.04c.34-.85,1.17-.5,2.81-.58,3.67,0,7.03,0,11.17,0,3.92.02,9.48-.04,12.58.02,1.26.12,1.14,2.27-.1,2.25-3.81.03-21.38.01-25.44,0-.89.06-1.28-.86-1.04-1.63l.03-.08Z"/>
    <path class="cls-1" d="M161.72,7.22c.34-.85,1.17-.5,2.81-.58,3.67,0,7.03,0,11.17,0,3.92.02,9.48-.04,12.58.02,1.26.12,1.14,2.27-.1,2.25-3.81.03-21.38.01-25.44,0-.89.06-1.28-.86-1.04-1.63l.03-.08Z"/>
    <path class="cls-1" d="M161.72,13.4c.34-.85,1.17-.5,2.81-.58,3.67,0,7.03,0,11.17,0,3.92.02,9.48-.04,12.58.02,1.26.12,1.14,2.27-.1,2.25-3.81.03-21.38.01-25.44,0-.89.06-1.28-.86-1.04-1.63l.03-.08Z"/>
  </g>
  <circle class="cls-1" cx="235.29" cy="15.11" r="1.2"/>
  <path class="cls-1" d="M246.57,14.89c-.33-.35-.21-.83.28-1.15,1.17-.71,2.77-.26,4.1-.3,4.56.08,9.15-.03,13.71-.1,1.72-.03,3.62-.33,4.93-1.51,2.94-2.42,1.5-7.17-1.63-8.4-1.15-.42-2.19-.21-3.47-.26-3.9-.02-10.76-.05-14.66-.07-1.47-.11-3.31.4-3.5-.89.14-2.15,3.79-1.19,5.33-1.47,4.37-.18,10.15-.63,14.46-.24,6.64.22,10.76,8.94,4.94,13.29-1.68,1.35-3.87,1.88-5.99,1.96-5.33.23-10.87-.42-16.25-.36-.71.02-1.72-.02-2.16-.43l-.08-.08Z"/>
  <g>
    <path class="cls-1" d="M282.85,1.39c.34-.85,1.17-.5,2.81-.58,3.67,0,7.03,0,11.17,0,3.92.02,9.48-.04,12.58.02,1.26.12,1.14,2.27-.1,2.25-3.81.03-21.38.01-25.44,0-.89.06-1.28-.86-1.04-1.63l.03-.08Z"/>
    <path class="cls-1" d="M282.85,7.57c.34-.85,1.17-.5,2.81-.58,3.67,0,7.03,0,11.17,0,3.92.02,9.48-.04,12.58.02,1.26.12,1.14,2.27-.1,2.25-3.81.03-21.38.01-25.44,0-.89.06-1.28-.86-1.04-1.63l.03-.08Z"/>
    <path class="cls-1" d="M282.85,13.75c.34-.85,1.17-.5,2.81-.58,3.67,0,7.03,0,11.17,0,3.92.02,9.48-.04,12.58.02,1.26.12,1.14,2.27-.1,2.25-3.81.03-21.38.01-25.44,0-.89.06-1.28-.86-1.04-1.63l.03-.08Z"/>
  </g>
  <path class="cls-1" d="M316.51.91c.47-.2,1.79-.18,2.35-.03,1.26.77,2.33,2.41,3.38,3.51,1.5,1.74,6.17,6.43,7.78,7.7.9.72,2.24,1.11,3.31.46,3.76-3.2,7.44-7.49,10.73-11.21.43-.49.99-.61,1.65-.58,1.66,0,1.14,1.08.33,1.94-3.24,3.57-6.52,7.14-9.78,10.71-2.34,2.63-6.45,2.38-8.81-.16-3.88-3.39-9.48-9.89-10.75-11.38-.18-.22-.39-.61-.26-.89l.07-.07Z"/>
</svg>